# xmcd CD database file
#
# Track frame offsets:
#	150
#	32352
#	55148
#	76731
#	103562
#	127365
#	154732
#	179010
#	195786
#	219783
#	232179
#
# Disc length: 3370 seconds
#
# Revision: 0
# Processed by: cddbd v1.5.2PL0 Copyright (c) Steve Scherf et al.
# Submitted via: CDex 1.51
#
DISCID=890d280b
DTITLE=Fabien Degryse - The Heart of the Acoustic Guitar
DYEAR=2007
DGENRE=Jazz
TTITLE0=Dreams and Goals
TTITLE1=Al Áa
TTITLE2=Fatima
TTITLE3=Da Ann Blues
TTITLE4=Time for Some Sun
TTITLE5=Waltz for Life
TTITLE6=The Odd Party
TTITLE7=Back to the Roots
TTITLE8=Away from Your Love
TTITLE9=It's a Long, Long Journey
TTITLE10=Back Home
EXTD=YEAR: 2007
EXTT0=
EXTT1=
EXTT2=
EXTT3=
EXTT4=
EXTT5=
EXTT6=
EXTT7=
EXTT8=
EXTT9=
EXTT10=
PLAYORDER=
